<svg width="24" height="35" viewBox="0 0 24 35" fill="none" xmlns="http://www.w3.org/2000/svg">
<path fill-rule="evenodd" clip-rule="evenodd" d="M4.47829 13.576C5.63547 13.576 6.74526 13.1211 7.56351 12.3115C8.38176 11.5019 8.84145 10.4038 8.84145 9.25876C8.84027 9.08748 8.82591 8.91653 8.79851 8.7474C8.69179 8.12221 8.46517 7.523 8.13085 6.98208L4.47829 0.88562L0.815466 6.99825C0.529574 7.46309 0.322643 7.97116 0.202906 8.50225C0.147537 8.75041 0.117996 9.00352 0.114746 9.25764C0.114646 9.8247 0.227439 10.3862 0.446683 10.9101C0.665927 11.4341 0.987327 11.9101 1.39253 12.3111C1.79773 12.7121 2.2788 13.0302 2.80826 13.2473C3.33771 13.4643 3.90519 13.576 4.47829 13.576Z" fill="#2DDDE4"/>
<path fill-rule="evenodd" clip-rule="evenodd" d="M23.7925 24.257C23.5615 22.9024 23.0706 21.604 22.3462 20.432L14.4354 7.23102L6.50329 20.4696C5.8842 21.4771 5.43596 22.578 5.17633 23.7288C5.05681 24.2663 4.99314 24.8144 4.98633 25.3647C4.98633 27.8445 5.98189 30.2227 7.75401 31.9762C9.52613 33.7297 11.9296 34.7147 14.4358 34.7147C16.9419 34.7147 19.3454 33.7297 21.1176 31.9762C22.8897 30.2227 23.8852 27.8445 23.8852 25.3647C23.8829 24.9937 23.8519 24.6234 23.7925 24.257ZM20.9399 27.5117C20.5881 28.3841 20.0614 29.177 19.3916 29.8426C18.7218 30.5081 17.9227 31.0327 17.0426 31.3845C16.9563 31.4193 16.864 31.4371 16.7709 31.4368C16.6024 31.4369 16.4391 31.379 16.309 31.2729C16.179 31.1669 16.0903 31.0194 16.0582 30.8557C16.0261 30.692 16.0526 30.5224 16.1332 30.3759C16.2137 30.2295 16.3432 30.1153 16.4996 30.0531C17.1971 29.7737 17.8305 29.3578 18.3616 28.8302C18.8926 28.3027 19.3105 27.6744 19.5901 26.983C19.6252 26.8954 19.6775 26.8154 19.7439 26.7477C19.8102 26.6799 19.8894 26.6258 19.9769 26.5884C20.0645 26.551 20.1586 26.531 20.2539 26.5295C20.3492 26.5281 20.4439 26.5452 20.5325 26.58C20.6211 26.6147 20.702 26.6664 20.7704 26.7321C20.8388 26.7978 20.8935 26.8762 20.9314 26.9627C20.9692 27.0493 20.9894 27.1424 20.9909 27.2368C20.9923 27.3311 20.975 27.4248 20.9399 27.5125V27.5117Z" fill="#2DDDE4"/>
</svg>
