<svg width="36" height="45" viewBox="0 0 36 45" fill="none" xmlns="http://www.w3.org/2000/svg">
<path d="M29.5251 21.0441H28.4703C28.1859 21.0441 27.9561 21.274 27.9561 21.5584C27.9561 21.8428 28.1859 22.0726 28.4703 22.0726H29.5251C29.8095 22.0726 30.0394 21.8428 30.0394 21.5584C30.0394 21.274 29.8095 21.0441 29.5251 21.0441Z" fill="#0F5E05"/>
<path d="M34.0828 21.0883H33.028C32.7436 21.0883 32.5137 21.3182 32.5137 21.6026C32.5137 21.887 32.7436 22.1169 33.028 22.1169H34.0828C34.3672 22.1169 34.597 21.887 34.597 21.6026C34.597 21.3182 34.3672 21.0883 34.0828 21.0883Z" fill="#0F5E05"/>
<path d="M31.3276 22.2439C31.0432 22.2439 30.8134 22.4738 30.8134 22.7582V23.813C30.8134 24.0974 31.0432 24.3273 31.3276 24.3273C31.612 24.3273 31.8419 24.0974 31.8419 23.813V22.7582C31.8419 22.4738 31.612 22.2439 31.3276 22.2439Z" fill="#0F5E05"/>
<mask id="path-4-inside-1_3_142" fill="white">
<path d="M31.3179 20.7607C31.6023 20.7607 31.8322 20.5308 31.8322 20.2464V14.2905C31.8322 14.076 31.699 13.8842 31.4984 13.8086L16.8125 8.32014C16.6963 8.27642 16.5682 8.27642 16.4525 8.32014L1.76706 13.8091C1.56855 13.8837 1.43586 14.0719 1.43278 14.2838C1.43021 14.4957 1.55723 14.688 1.75369 14.7672L6.72529 16.7837V24.7217C6.72529 26.7773 11.8635 27.7133 16.6376 27.7133C21.4117 27.7133 26.55 26.7773 26.55 24.7217V16.9046L29.1955 15.8652C29.4603 15.7619 29.5904 15.4631 29.486 15.1987C29.3827 14.9339 29.0839 14.8037 28.8195 14.9081L16.6351 19.6931L3.36392 14.31L16.6325 9.35025L30.8041 14.6474V20.2464C30.8036 20.5308 31.034 20.7607 31.3179 20.7607ZM16.6325 20.7607C16.6963 20.7607 16.76 20.7489 16.8207 20.7252L25.5219 17.3078V24.7212C25.5219 25.3877 22.3863 26.6843 16.6381 26.6843C10.89 26.6843 7.75438 25.3877 7.75438 24.7212V17.2008L16.4391 20.7232C16.5008 20.7484 16.5667 20.7607 16.6325 20.7607Z"/>
</mask>
<path d="M31.3179 20.7607C31.6023 20.7607 31.8322 20.5308 31.8322 20.2464V14.2905C31.8322 14.076 31.699 13.8842 31.4984 13.8086L16.8125 8.32014C16.6963 8.27642 16.5682 8.27642 16.4525 8.32014L1.76706 13.8091C1.56855 13.8837 1.43586 14.0719 1.43278 14.2838C1.43021 14.4957 1.55723 14.688 1.75369 14.7672L6.72529 16.7837V24.7217C6.72529 26.7773 11.8635 27.7133 16.6376 27.7133C21.4117 27.7133 26.55 26.7773 26.55 24.7217V16.9046L29.1955 15.8652C29.4603 15.7619 29.5904 15.4631 29.486 15.1987C29.3827 14.9339 29.0839 14.8037 28.8195 14.9081L16.6351 19.6931L3.36392 14.31L16.6325 9.35025L30.8041 14.6474V20.2464C30.8036 20.5308 31.034 20.7607 31.3179 20.7607ZM16.6325 20.7607C16.6963 20.7607 16.76 20.7489 16.8207 20.7252L25.5219 17.3078V24.7212C25.5219 25.3877 22.3863 26.6843 16.6381 26.6843C10.89 26.6843 7.75438 25.3877 7.75438 24.7212V17.2008L16.4391 20.7232C16.5008 20.7484 16.5667 20.7607 16.6325 20.7607Z" fill="#0F5E05"/>
<path d="M31.4984 13.8086L45.9592 -24.5566L45.9053 -24.5769L45.8514 -24.597L31.4984 13.8086ZM16.8125 8.32014L2.37922 46.6957L2.41933 46.7107L2.45948 46.7257L16.8125 8.32014ZM16.4525 8.32014L30.8071 46.7251L30.8746 46.6999L30.9419 46.6745L16.4525 8.32014ZM1.76706 13.8091L-12.5876 -24.5959L-12.6192 -24.5841L-12.6508 -24.5722L1.76706 13.8091ZM1.43278 14.2838L-39.5629 13.6868L-39.5636 13.7365L-39.5642 13.7863L1.43278 14.2838ZM1.75369 14.7672L17.1642 -23.2264L17.1239 -23.2428L17.0836 -23.259L1.75369 14.7672ZM6.72529 16.7837H47.7253V-10.8306L22.1358 -21.2099L6.72529 16.7837ZM26.55 16.9046L11.5573 -21.2559L-14.45 -11.038V16.9046H26.55ZM29.1955 15.8652L14.2886 -22.3288L14.2457 -22.3121L14.2028 -22.2952L29.1955 15.8652ZM29.486 15.1987L-8.70804 30.1055L-8.67801 30.1825L-8.64766 30.2593L29.486 15.1987ZM28.8195 14.9081L43.8063 53.0709L43.8432 53.0564L43.8801 53.0418L28.8195 14.9081ZM16.6351 19.6931L1.22419 57.6865L16.3892 63.8378L31.6218 57.8558L16.6351 19.6931ZM3.36392 14.31L-10.9917 -24.0946L-109.56 12.7502L-12.047 52.3035L3.36392 14.31ZM16.6325 9.35025L30.9876 -29.0546L16.6322 -34.4204L2.27689 -29.0544L16.6325 9.35025ZM30.8041 14.6474H71.8041V-13.798L45.1593 -23.7574L30.8041 14.6474ZM30.8041 20.2464L71.8041 20.3206L71.8041 20.2835V20.2464H30.8041ZM16.8207 20.7252L31.7123 58.9253L31.7607 58.9064L31.8091 58.8874L16.8207 20.7252ZM25.5219 17.3078H66.5219V-42.844L10.5336 -20.8544L25.5219 17.3078ZM7.75438 17.2008L23.1639 -20.7932L-33.2456 -43.6717V17.2008H7.75438ZM16.4391 20.7232L31.9384 -17.2343L31.8936 -17.2526L31.8487 -17.2709L16.4391 20.7232ZM31.3179 61.7607C54.246 61.7607 72.8322 43.1745 72.8322 20.2464H-9.1678C-9.1678 -2.11285 8.95864 -20.2393 31.3179 -20.2393V61.7607ZM72.8322 20.2464V14.2905H-9.1678V20.2464H72.8322ZM72.8322 14.2905C72.8322 -3.05096 62.0706 -18.4838 45.9592 -24.5566L17.0377 52.1738C1.32736 46.2522 -9.1678 31.203 -9.1678 14.2905H72.8322ZM45.8514 -24.597L31.1655 -30.0855L2.45948 46.7257L17.1454 52.2142L45.8514 -24.597ZM31.2458 -30.0554C21.8462 -33.5906 11.437 -33.6132 1.96307 -30.0342L30.9419 46.6745C21.6994 50.1661 11.5463 50.1435 2.37922 46.6957L31.2458 -30.0554ZM2.09785 -30.0849L-12.5876 -24.5959L16.1217 52.2141L30.8071 46.7251L2.09785 -30.0849ZM-12.6508 -24.5722C-28.5941 -18.5831 -39.3136 -3.43203 -39.5629 13.6868L42.4284 14.8808C42.1853 31.5759 31.7312 46.3505 16.1849 52.1904L-12.6508 -24.5722ZM-39.5642 13.7863C-39.77 30.7464 -29.5975 46.3346 -13.5762 52.7934L17.0836 -23.259C32.7119 -16.9586 42.6304 -1.75507 42.4298 14.7813L-39.5642 13.7863ZM-13.6568 52.7609L-8.68518 54.7774L22.1358 -21.2099L17.1642 -23.2264L-13.6568 52.7609ZM-34.2747 16.7837V24.7217H47.7253V16.7837H-34.2747ZM-34.2747 24.7217C-34.2747 44.6942 -21.2893 56.0065 -15.3907 60.002C-9.28148 64.1401 -3.37578 65.8993 -0.461495 66.6598C5.96226 68.3362 12.2067 68.7133 16.6376 68.7133V-13.2867C16.7331 -13.2867 16.9379 -13.2844 17.3141 -13.2453C17.5974 -13.2158 18.6486 -13.0993 20.2438 -12.683C21.2768 -12.4135 25.5996 -11.2737 30.5961 -7.88921C35.3822 -4.64734 47.7253 5.77704 47.7253 24.7217H-34.2747ZM16.6376 68.7133C21.0685 68.7133 27.313 68.3362 33.7368 66.6598C36.6511 65.8993 42.5568 64.1401 48.6659 60.002C54.5646 56.0065 67.55 44.6942 67.55 24.7217H-14.45C-14.45 5.77705 -2.10692 -4.64733 2.67912 -7.8892C7.6757 -11.2737 11.9985 -12.4135 13.0314 -12.683C14.6266 -13.0993 15.6779 -13.2158 15.9612 -13.2453C16.3373 -13.2844 16.5422 -13.2867 16.6376 -13.2867V68.7133ZM67.55 24.7217V16.9046H-14.45V24.7217H67.55ZM41.5426 55.0651L44.1881 54.0257L14.2028 -22.2952L11.5573 -21.2559L41.5426 55.0651ZM44.1023 54.0593C65.5423 45.6914 76.0573 21.5021 67.6197 0.138126L-8.64766 30.2593C-16.8764 9.42401 -6.62171 -14.1677 14.2886 -22.3288L44.1023 54.0593ZM67.6801 0.291898C59.3122 -21.1482 35.1229 -31.6631 13.7589 -23.2256L43.8801 53.0418C23.0448 61.2706 -0.546907 51.0159 -8.70804 30.1055L67.6801 0.291898ZM13.8328 -23.2546L1.6483 -18.4697L31.6218 57.8558L43.8063 53.0709L13.8328 -23.2546ZM32.0459 -18.3004L18.7748 -23.6835L-12.047 52.3035L1.22419 57.6865L32.0459 -18.3004ZM17.7195 52.7147L30.9881 47.7549L2.27689 -29.0544L-10.9917 -24.0946L17.7195 52.7147ZM2.27737 47.7551L16.449 53.0522L45.1593 -23.7574L30.9876 -29.0546L2.27737 47.7551ZM-10.1959 14.6474V20.2464H71.8041V14.6474H-10.1959ZM-10.1958 20.1723C-10.2374 43.1992 8.43142 61.7607 31.3179 61.7607V-20.2393C53.6366 -20.2393 71.8447 -2.13759 71.8041 20.3206L-10.1958 20.1723ZM16.6325 61.7607C21.7765 61.7607 26.8913 60.8046 31.7123 58.9253L1.92918 -17.4748C6.62873 -19.3068 11.616 -20.2393 16.6325 -20.2393V61.7607ZM31.8091 58.8874L40.5103 55.4699L10.5336 -20.8544L1.83239 -17.4369L31.8091 58.8874ZM-15.4781 17.3078V24.7212H66.5219V17.3078H-15.4781ZM-15.4781 24.7212C-15.4781 8.95713 -6.74858 -0.791771 -3.94934 -3.65663C-0.30188 -7.3896 3.20829 -9.50939 4.88379 -10.4492C8.47953 -12.4662 11.3976 -13.3179 12.5044 -13.618C13.9491 -14.0098 15.0054 -14.1695 15.5777 -14.2381C16.1911 -14.3115 16.5485 -14.3157 16.6381 -14.3157V67.6843C22.369 67.6843 28.2955 67.0614 33.9668 65.5234C36.576 64.8158 40.6372 63.5151 45.0005 61.0675C47.0598 59.9124 50.8599 57.5819 54.7013 53.6505C57.6944 50.5872 66.5219 40.6519 66.5219 24.7212H-15.4781ZM16.6381 -14.3157C16.7278 -14.3157 17.0852 -14.3115 17.6986 -14.2381C18.2709 -14.1695 19.3272 -14.0098 20.7719 -13.618C21.8787 -13.3179 24.7968 -12.4662 28.3925 -10.4493C30.068 -9.5094 33.5782 -7.38961 37.2256 -3.65665C40.0249 -0.791788 48.7544 8.95711 48.7544 24.7212H-33.2456C-33.2456 40.652 -24.4181 50.5872 -21.4249 53.6505C-17.5836 57.582 -13.7835 59.9124 -11.7242 61.0675C-7.36094 63.5151 -3.29971 64.8158 -0.690516 65.5234C4.98081 67.0614 10.9073 67.6843 16.6381 67.6843V-14.3157ZM48.7544 24.7212V17.2008H-33.2456V24.7212H48.7544ZM-7.65517 55.1948L1.02957 58.7172L31.8487 -17.2709L23.1639 -20.7932L-7.65517 55.1948ZM0.93981 58.6807C6.11054 60.792 11.4595 61.7607 16.6325 61.7607V-20.2393C21.6739 -20.2393 26.8911 -19.2953 31.9384 -17.2343L0.93981 58.6807Z" fill="#0F5E05" mask="url(#path-4-inside-1_3_142)"/>
</svg>
