<svg width="825" height="777" viewBox="0 0 825 777" fill="none" xmlns="http://www.w3.org/2000/svg">
<path d="M790.22 404.383H601.511L596.072 401.125L746.42 150.154C749.691 152.096 753.64 152.561 757.284 151.417C760.914 150.26 763.879 147.6 765.421 144.116L808.689 46.0149C811.402 39.8836 809.115 32.6883 803.357 29.2303L757.736 1.88554C751.965 -1.54586 744.558 -0.189257 740.423 5.10414L674.338 89.5325C671.984 92.5383 671.04 96.4086 671.732 100.146C672.423 103.897 674.697 107.168 677.968 109.137L527.62 360.094L504.803 346.409C501.771 344.6 498.154 344.055 494.724 344.919C491.306 345.77 488.354 347.965 486.546 350.997L454.647 404.37H328.273L262.254 316.63C289.353 272.567 288.848 219.168 260.193 181.037C232.562 144.329 185.039 128.541 136.213 139.9C131.825 140.91 128.262 144.076 126.719 148.305C125.177 152.535 125.882 157.243 128.581 160.847L182.048 232.029C184.095 234.742 183.484 238.679 180.665 240.807L127.198 281.159C124.406 283.234 120.27 282.649 118.183 279.869L64.7292 208.847C62.0299 205.243 57.7749 203.327 53.1875 203.58C48.6932 203.886 44.6642 206.453 42.4835 210.403C18.1103 254.346 20.0783 304.381 47.6028 340.956C76.2443 379.047 127.411 394.315 177.314 380.523L195.278 404.383H34.1863C15.3313 404.383 0 419.718 0 438.578V484.875C0 499.159 11.6215 510.783 25.9023 510.783H26.5938V719.115C26.5938 750.915 52.4562 776.783 84.249 776.783H740.157C771.95 776.783 797.812 750.915 797.812 719.115V510.783H798.504C812.785 510.783 824.406 499.159 824.406 484.875V438.578C824.406 419.718 809.075 404.383 790.22 404.383ZM707.633 111.411C711.104 105.612 709.654 98.244 704.508 94.1609L754.132 30.7465L779.622 46.0149L747.125 119.71C741.115 117.077 733.921 119.298 730.451 125.083L573.281 387.453L550.464 373.78L707.646 111.411H707.633ZM502.569 376.094L525.253 389.687L525.36 389.78L549.719 404.383H485.655L502.569 376.094ZM192.938 357.022C189.441 352.38 183.324 350.532 177.899 352.474C136.133 367.183 92.3202 356.144 68.8778 324.956C51.685 302.106 47.6826 272.048 57.1633 242.975L96.9741 295.882C107.838 310.286 128.501 313.292 143.128 302.479L196.714 262.047C211.221 251.101 214.186 230.459 203.336 216.042L163.485 162.988C193.842 162.044 221.725 174.121 238.985 197.05C262.44 228.252 260.925 273.405 235.208 309.395C231.831 314.116 231.911 320.487 235.408 325.129L295.044 404.37H228.6L192.964 357.009L192.938 357.022ZM771.232 719.115C771.232 736.245 757.297 750.183 740.171 750.183H84.249C67.1226 750.183 53.1875 736.245 53.1875 719.115V510.783H771.219L771.232 719.115ZM797.826 484.183H39.8906C38.6806 484.183 37.6036 484.569 36.4999 484.875H26.5938V438.591C26.5938 434.402 29.9978 430.997 34.1863 430.997H790.22C794.409 430.997 797.812 434.402 797.812 438.591V484.197L797.826 484.183Z" fill="#F06501"/>
</svg>
