<svg width="434" height="434" viewBox="0 0 434 434" fill="none" xmlns="http://www.w3.org/2000/svg">
<path d="M216.667 0C201.5 0 184.167 2.16667 169 4.33333C158.167 8.66667 149.5 19.5 151.667 30.3333C153.833 41.1667 162.5 47.6667 173.333 47.6667C175.5 47.6667 175.5 47.6667 177.667 47.6667C190.667 45.5 203.667 43.3333 216.667 43.3333C312 43.3333 390 121.333 390 216.667C390 312 312 390 216.667 390C121.333 390 43.3333 312 43.3333 216.667C43.3333 203.667 45.5 190.667 47.6667 177.667C49.8333 166.833 43.3333 156 30.3333 151.667C19.5 149.5 8.66667 158.167 4.33333 169C2.16667 184.167 0 201.5 0 216.667C0 335.833 97.5 433.333 216.667 433.333C335.833 433.333 433.333 335.833 433.333 216.667C433.333 97.5 335.833 0 216.667 0Z" fill="#707070"/>
<path d="M56.3334 127.833C62.8334 127.833 69.3334 123.5 73.6667 119.167C86.6667 101.833 101.833 86.6667 119.167 73.6667C130 67.1667 132.167 54.1667 125.667 43.3334C119.167 32.5 104 30.3334 95.3334 36.8334C73.6667 52 54.1667 71.5 39.0001 93.1667C30.3334 104 32.5001 117 43.3334 125.667C47.6667 127.833 52.0001 127.833 56.3334 127.833Z" fill="#707070"/>
<path d="M216.667 108.333C203.667 108.333 195 117 195 130V216.667C195 223.167 197.167 227.5 201.5 231.833L266.5 296.833C270.833 301.167 277.333 303.333 281.667 303.333C286 303.333 292.5 301.167 296.833 296.833C305.5 288.167 305.5 275.167 296.833 266.5L238.333 208V130C238.333 117 229.667 108.333 216.667 108.333Z" fill="#707070"/>
</svg>
