<svg width="35" height="44" viewBox="0 0 35 44" fill="none" xmlns="http://www.w3.org/2000/svg">
<path d="M5.77495 5.80795C-0.700049 12.3199 -0.700049 22.8799 5.77495 29.3919C12.25 35.9039 22.75 35.9039 29.225 29.3919C35.7 22.8799 35.7 12.3199 29.225 5.80795C22.75 -0.70405 12.25 -0.70405 5.77495 5.80795ZM18.165 7.91995C19.565 7.91995 20.685 9.08155 20.685 10.4895C20.685 11.8975 19.53 13.0591 18.165 13.0591C16.765 13.0591 15.61 11.8975 15.61 10.4543C15.61 9.04635 16.765 7.91995 18.165 7.91995ZM21.77 25.1327C21.7 25.3439 21.56 25.5903 21.42 25.7311C20.51 26.6815 19.39 27.2447 18.06 27.2447C17.43 27.2447 16.835 27.2447 16.205 27.1391C15.19 26.9983 13.895 25.7311 14.07 24.3935C14.21 23.4783 14.35 22.5631 14.49 21.6479C14.77 20.0639 15.05 18.4447 15.33 16.8607C15.33 16.7551 15.365 16.6495 15.365 16.5439C15.365 15.8751 15.155 15.6287 14.49 15.5583C14.21 15.5231 13.93 15.4879 13.65 15.4175C13.335 15.3119 13.16 15.0303 13.195 14.7839C13.23 14.5023 13.405 14.3263 13.755 14.2559C13.93 14.2207 14.14 14.2207 14.35 14.2207C15.12 14.2207 15.89 14.2207 16.695 14.2207C17.535 14.2207 18.34 14.2207 19.18 14.2207C19.775 14.2207 20.125 14.5023 20.125 15.1007C20.125 15.5935 20.055 16.0863 19.95 16.5791C19.635 18.4095 19.285 20.2047 18.97 22.0351C18.865 22.6335 18.725 23.2319 18.655 23.8303C18.62 24.1119 18.655 24.4287 18.725 24.7103C18.83 25.0975 19.11 25.3087 19.495 25.2735C19.81 25.2383 20.125 25.1327 20.44 24.9919C20.685 24.8863 20.895 24.7103 21.14 24.6399C21.56 24.4991 21.875 24.7455 21.77 25.1327Z" fill="#626161"/>
</svg>
