<svg width="44" height="44" viewBox="0 0 44 44" fill="none" xmlns="http://www.w3.org/2000/svg">
<rect width="44" height="44" rx="22" fill="#E2E6D7"/>
<path d="M25.8689 22.4696C27.8308 21.0724 29 18.8159 29 16.4343C29 14.3206 28.0871 12.2983 26.4995 10.8913C24.9099 9.48423 22.7778 8.80744 20.6415 9.0476C17.2221 9.4227 14.4514 12.1575 14.0511 15.5452C13.7328 18.2483 14.918 20.9058 17.1362 22.4793C17.5366 22.7631 17.7768 23.2255 17.7768 23.7236V23.9935C16.92 24.2118 16.2853 24.9799 16.2853 25.8928C16.2853 26.4565 16.5255 26.9606 16.91 27.3198C16.5256 27.681 16.2853 28.1831 16.2853 28.7467C16.2853 29.8025 17.1301 30.6678 18.1912 30.7075V30.7175C18.1912 32.5254 19.6767 34 21.5025 34C23.3263 34 24.8138 32.5274 24.8138 30.7175V30.7075C25.8689 30.6619 26.7197 29.8026 26.7197 28.7467C26.7197 28.1831 26.4795 27.679 26.0951 27.3198C26.4795 26.9586 26.7197 26.4565 26.7197 25.8928C26.7197 24.9779 26.0851 24.2118 25.2282 23.9935V23.7236C25.2222 23.2255 25.4625 22.7594 25.8689 22.4696ZM17.7707 21.5963C15.8748 20.2508 14.8638 17.9783 15.1361 15.6723C15.4744 12.7807 17.8427 10.4489 20.7578 10.1293C22.6136 9.92689 24.3914 10.4846 25.7648 11.7051C27.1221 12.9098 27.9029 14.6364 27.9029 16.4404C27.9029 18.4786 26.9039 20.4037 25.2282 21.5963C24.5355 22.0884 24.1271 22.8863 24.1271 23.7258V23.9242L23.0861 23.9222V19.9133H23.989C25.0901 19.9133 25.987 19.0242 25.987 17.9327C25.987 16.8412 25.0901 15.952 23.989 15.952C22.8879 15.952 21.991 16.8412 21.991 17.9327V18.8277H21.0021V17.9327C21.0021 16.8412 20.1052 15.952 19.0041 15.952C17.903 15.952 17.0061 16.8412 17.0061 17.9327C17.0061 19.0242 17.903 19.9133 19.0041 19.9133H19.907V23.9222H18.866V23.7238C18.868 22.8763 18.4573 22.0825 17.7707 21.5963ZM21.0039 23.9183V19.9094H21.9929V23.9183H21.0039ZM19.9068 18.826H19.0039C18.5074 18.826 18.101 18.4251 18.101 17.9309C18.101 17.4387 18.5054 17.0359 19.0039 17.0359C19.5004 17.0359 19.9068 17.4368 19.9068 17.9309V18.826ZM23.086 18.826V17.9309C23.086 17.4387 23.4904 17.0359 23.9889 17.0359C24.4854 17.0359 24.8918 17.4368 24.8918 17.9309C24.8918 18.4231 24.4874 18.826 23.9889 18.826H23.086ZM21.4964 32.9146C20.2772 32.9146 19.2822 31.9282 19.2822 30.7196H23.7146C23.7106 31.9302 22.7156 32.9146 21.4964 32.9146ZM25.6165 28.7489C25.6165 29.2371 25.2161 29.632 24.7196 29.632H24.2591L18.7338 29.634H18.2733C17.7808 29.634 17.3764 29.2371 17.3764 28.7509C17.3764 28.2626 17.7768 27.8677 18.2733 27.8677H24.7258C25.2183 27.8598 25.6165 28.2606 25.6165 28.7489ZM25.6165 25.889C25.6165 26.3773 25.2161 26.7722 24.7196 26.7722H18.2732C17.7807 26.7722 17.3763 26.3753 17.3763 25.889C17.3763 25.4008 17.7767 25.0059 18.2732 25.0059H18.3253L24.6738 25.0039H24.7258C25.2183 25.0039 25.6165 25.4008 25.6165 25.889Z" fill="#EF5B21"/>
</svg>
