<svg width="44" height="44" viewBox="0 0 44 44" fill="none" xmlns="http://www.w3.org/2000/svg">
<rect width="44" height="44" rx="22" fill="#E2E6D7"/>
<path d="M22.3269 11.7951C23.1996 13.2691 24.0713 14.7455 24.9417 16.2219C24.3381 16.5738 23.7566 16.9607 23.146 17.3009V17.2998C22.8873 17.4338 22.638 17.5841 22.4003 17.7519C22.4003 17.788 22.4014 17.8614 22.4026 17.8975C23.1822 18.1189 23.9885 18.2238 24.7821 18.3869C25.6816 18.5221 26.5719 18.7097 27.4714 18.8413C27.7511 18.9054 28.0307 18.9614 28.3116 19.0161C28.6821 19.107 29.062 19.1513 29.436 19.2247C29.5642 18.8227 29.7774 18.4557 29.9336 18.0641C30.3705 17.0306 30.832 16.0087 31.276 14.9785C31.4636 14.5637 31.643 14.1453 31.8341 13.7328C32.0112 13.3169 32.1872 12.8985 32.3911 12.4942C32.4214 12.3823 32.5298 12.2611 32.4494 12.1469C32.3923 12.0502 32.2548 12.1003 32.1732 12.1353C31.8353 12.3054 31.5195 12.5163 31.1886 12.7016C30.6875 12.9777 30.2086 13.2947 29.704 13.5639C29.4535 13.057 29.1435 12.5815 28.8779 12.0817C28.3675 11.224 27.8804 10.3547 27.3724 9.49713H27.3759C27.2314 9.24194 27.0624 9.00188 26.8713 8.77935C26.6557 8.5463 26.3924 8.36104 26.0999 8.23635C25.614 8.04292 25.0897 7.96601 24.57 8.01379C24.2332 8.00563 23.8976 8.00214 23.562 8.01029C22.391 8.01495 21.2199 8.01262 20.0477 8.01612C20.3658 8.51601 20.6665 9.02638 20.9846 9.52628C21.418 10.2895 21.8946 11.0295 22.3269 11.7951Z" fill="#7D9750"/>
<path d="M21.4544 11.9571C20.782 10.8315 20.1213 9.69769 19.4268 8.58478H19.428C19.3045 8.34241 19.0866 8.16295 18.8267 8.08838C18.0984 8.13382 17.4424 8.53932 17.0765 9.16973C16.5568 9.97374 16.1059 10.8209 15.5897 11.6261C15.0152 12.5979 14.4163 13.5557 13.836 14.524C13.7474 14.6534 13.6693 14.7885 13.6006 14.9295C14.097 15.1917 14.5631 15.5087 15.0618 15.7685C15.7237 16.1624 16.4076 16.5166 17.0625 16.9233C17.6335 17.2717 18.2429 17.5572 18.7929 17.9394C19.0842 17.5222 19.3289 17.0759 19.5992 16.6459C20.0782 15.8757 20.5209 15.0833 21.0092 14.3189C21.2329 13.9437 21.4543 13.5662 21.6804 13.1922H21.6792C21.7596 13.05 21.8505 12.9148 21.9542 12.789C21.7736 12.521 21.6105 12.2403 21.4544 11.9571Z" fill="#7D9750"/>
<path d="M14.3312 25.5034C14.6504 25.0023 14.9464 24.4873 15.268 23.9886C15.4195 23.7217 15.6129 23.4794 15.7481 23.2044C16.1058 23.357 16.4426 23.5586 16.7863 23.7427C17.3154 24.0422 17.8549 24.3195 18.3839 24.6167H18.3827C18.4328 24.633 18.4876 24.6236 18.5296 24.591C18.5715 24.5596 18.5948 24.5083 18.5925 24.4558C18.5435 24.3009 18.4771 24.1517 18.3932 24.0107C17.7861 22.7756 17.1849 21.5369 16.5684 20.3064C16.1711 19.4697 15.7516 18.6436 15.3519 17.8081C14.1203 17.9246 12.8968 18.1216 11.664 18.2264C10.7004 18.3441 9.73788 18.47 8.76956 18.5527C8.61575 18.5527 8.43048 18.5946 8.38737 18.7659L8.38854 18.7671C8.43981 18.8393 8.50856 18.8988 8.58546 18.9407C9.38483 19.387 10.1854 19.8298 10.9707 20.3017C10.9428 20.3623 10.9125 20.4229 10.8787 20.4812C10.0781 21.8643 9.21238 23.209 8.3862 24.5769C8.08441 25.0558 7.9539 25.6221 8.01449 26.1849C8.13334 26.7291 8.36988 27.2406 8.70897 27.6834C9.41511 28.8358 10.1096 29.9953 10.8414 31.1315C11.5428 30.0117 12.2129 28.8698 12.9365 27.7628C13.3909 27.003 13.872 26.2596 14.3312 25.5034Z" fill="#7D9750"/>
<path d="M36.558 25.2106C36.417 24.6851 36.1816 24.1887 35.8635 23.7459C34.894 22.0749 33.9233 20.404 32.9539 18.7329C32.7674 18.8075 32.5903 18.9007 32.4225 19.0102C31.4985 19.5544 30.5803 20.1067 29.6551 20.6463C29.006 21.0133 28.3838 21.4246 27.7301 21.7835C28.8243 23.5524 29.8811 25.3435 30.9601 27.1205C32.6358 27.1146 34.3113 27.1333 35.9871 27.1158V27.117C36.2516 26.9224 36.4404 26.6404 36.5197 26.3223C36.6024 25.9575 36.6151 25.58 36.558 25.2106Z" fill="#7D9750"/>
<path d="M29.6609 27.9164C28.5166 27.9153 27.3723 27.9304 26.2292 27.9153C26.2257 26.8677 26.2269 25.8202 26.2257 24.7739C26.2199 24.7179 26.2292 24.6515 26.1907 24.6061C26.1511 24.5525 26.0882 24.521 26.0218 24.521C25.9554 24.5222 25.8924 24.5536 25.854 24.6072C25.6454 24.8764 25.4706 25.17 25.2818 25.4532C24.8239 26.1826 24.3263 26.8864 23.8486 27.6031C23.471 28.1892 23.0609 28.752 22.6787 29.3334C22.4153 29.7145 22.1438 30.0897 21.8979 30.4836C22.9199 31.848 23.9034 33.2405 24.9102 34.6156V34.6168C25.24 35.0946 25.5931 35.5548 25.9694 35.9953C26.03 36.0081 26.0918 35.993 26.1396 35.9534C26.1873 35.9137 26.2141 35.8555 26.213 35.7937C26.2234 35.0212 26.22 34.2498 26.2188 33.4772H26.22C26.3423 33.4597 26.4658 33.4539 26.5893 33.4609C27.3199 33.4621 28.0517 33.4597 28.7823 33.4621C29.2368 33.4597 29.6901 33.4609 30.1433 33.4632C30.4358 33.4586 30.7295 33.4632 31.0219 33.4597H31.0231C31.6861 33.4469 32.3107 33.1486 32.7383 32.6417C32.9143 32.4157 33.0728 32.1756 33.2126 31.9263C33.8546 30.9078 34.4839 29.8836 35.1026 28.8511C35.2786 28.5644 35.4708 28.2871 35.6339 27.9923C34.316 27.9958 32.997 27.9946 31.679 28.0004C31.0044 28.0109 30.3355 27.8955 29.6609 27.9164Z" fill="#7D9750"/>
<path d="M19.1273 27.6682C17.9866 27.6799 16.8458 27.681 15.7049 27.6787C15.1246 27.6868 14.5432 27.6624 13.964 27.6915C13.4595 28.464 12.9887 29.2588 12.4889 30.0348C12.2628 30.4077 12.0123 30.7678 11.8153 31.1581L11.8165 31.1593C11.6149 31.5135 11.5811 31.9388 11.7245 32.3199C11.9831 32.8477 12.4609 33.2357 13.0307 33.3791C13.2148 33.4292 13.4036 33.456 13.5947 33.4595H20.1048C20.106 31.5357 20.0978 29.6129 20.1118 27.6891C19.7844 27.6611 19.456 27.6542 19.1273 27.6682Z" fill="#7D9750"/>
</svg>
