<svg width="34" height="42" viewBox="0 0 34 42" fill="none" xmlns="http://www.w3.org/2000/svg">
<rect width="34" height="42" fill="white"/>
<path d="M13.4556 9.64441C13.2491 9.64441 13.0583 9.75743 12.9569 9.93851L10.8863 13.6526H10.8875C10.7764 13.8519 10.7933 14.0973 10.9297 14.2796C11.0662 14.4619 11.2968 14.5458 11.5177 14.4935C12.154 14.3416 12.806 14.2614 13.4592 14.2541C14.1075 14.2541 14.7547 14.3282 15.3874 14.4716C15.6083 14.5215 15.8377 14.4364 15.9729 14.2541C16.107 14.0706 16.1239 13.8263 16.0128 13.627L13.9554 9.93881C13.854 9.75651 13.6632 9.64319 13.4556 9.64441ZM4.32162 13.4471C4.14535 13.452 3.98113 13.5395 3.87731 13.6817C3.77347 13.8239 3.73966 14.0074 3.78675 14.1775L4.92411 18.25C4.98448 18.4687 5.168 18.6304 5.39137 18.6644C5.61473 18.6972 5.83689 18.5951 5.95762 18.4031C6.30414 17.8514 6.71103 17.3397 7.16864 16.8767C7.63589 16.4161 8.15507 16.0102 8.71168 15.6651C8.90486 15.5448 9.00991 15.3212 8.97731 15.0939C8.94592 14.8679 8.78413 14.6819 8.56439 14.62L4.49181 13.4679C4.43627 13.4521 4.37837 13.4459 4.32162 13.4471ZM22.5821 13.4471C22.5193 13.4435 22.4577 13.4508 22.3974 13.4678L18.3514 14.6126V14.6114C18.134 14.6733 17.9734 14.8581 17.9397 15.0829C17.9071 15.3077 18.0085 15.5313 18.1992 15.6528C18.7474 16.0016 19.2557 16.4112 19.7157 16.8718C20.1733 17.3421 20.5766 17.8646 20.9195 18.4249V18.4237C21.039 18.6193 21.2612 18.7239 21.4869 18.6923C21.7115 18.6607 21.8962 18.4978 21.9578 18.2766L23.1012 14.1774C23.1483 14.0097 23.1169 13.8287 23.0155 13.6865C22.914 13.5455 22.7547 13.4568 22.5821 13.4471ZM13.4494 15.1181C9.03031 15.1181 5.4359 18.736 5.4359 23.184C5.4359 27.632 9.03031 31.2499 13.4494 31.2499C17.8685 31.2499 21.4629 27.632 21.4629 23.184C21.4629 18.736 17.8685 15.1181 13.4494 15.1181ZM4.2731 20.5308C4.17047 20.5284 4.06905 20.5539 3.9797 20.605L0.289774 22.6892H0.290981C0.111081 22.7913 0 22.9833 0 23.1911C0 23.3989 0.111081 23.5909 0.290981 23.693L3.95525 25.7638V25.7626C4.15206 25.8744 4.39596 25.8586 4.57705 25.7225C4.75816 25.5876 4.84268 25.3567 4.79317 25.1355C4.6507 24.4987 4.57826 23.8473 4.57705 23.1947C4.5843 22.536 4.66519 21.881 4.81611 21.2406L4.81732 21.2394C4.85717 21.0704 4.81853 20.8918 4.71349 20.7545C4.60724 20.6171 4.44545 20.5345 4.27278 20.5308L4.2731 20.5308ZM22.6013 20.5308C22.4335 20.5418 22.2789 20.6268 22.1799 20.763C22.0797 20.9003 22.0447 21.0741 22.0833 21.2381C22.2342 21.8786 22.3139 22.5348 22.3212 23.1923C22.3212 23.8449 22.2475 24.4963 22.105 25.1331V25.1343C22.0555 25.3567 22.1413 25.5864 22.3224 25.7225C22.5035 25.8586 22.7474 25.8732 22.9454 25.7626L26.6097 23.6918C26.7896 23.5897 26.9006 23.3977 26.9006 23.1898C26.9006 22.982 26.7896 22.79 26.6097 22.6879L22.9197 20.6037C22.8231 20.5491 22.7124 20.5236 22.6013 20.5308ZM8.2987 22.609C8.61502 22.609 8.87101 22.8666 8.87101 23.185C8.87101 25.7371 10.9139 27.7944 13.4505 27.7944C13.7668 27.7944 14.0228 28.0521 14.0228 28.3705C14.0228 28.6889 13.7668 28.9466 13.4505 28.9466C10.2956 28.9466 7.72614 26.3604 7.72614 23.1848C7.72614 22.8664 7.9821 22.6087 8.29845 22.6087L8.2987 22.609ZM21.4858 27.6838C21.2612 27.6522 21.0403 27.7579 20.9207 27.9512C20.5778 28.5114 20.1721 29.0316 19.7158 29.5031C19.257 29.9649 18.7475 30.372 18.1993 30.722C18.0085 30.8436 17.9059 31.0672 17.9385 31.2932C17.9723 31.518 18.1341 31.7027 18.3514 31.7635L22.3974 32.9083C22.5966 32.9642 22.8103 32.9083 22.9564 32.7612C23.1025 32.6142 23.1581 32.3991 23.1025 32.1986L21.958 28.0994C21.8964 27.8782 21.7115 27.7154 21.4858 27.6838ZM5.39139 27.7106C5.16802 27.7446 4.9845 27.9074 4.92413 28.1262L3.78677 32.1986C3.73123 32.3991 3.78677 32.6142 3.93287 32.7613C4.07896 32.9083 4.29268 32.9642 4.49189 32.9083L8.56447 31.7563C8.78422 31.6943 8.94601 31.5083 8.97739 31.2823C9.00999 31.0551 8.90494 30.8314 8.71176 30.7111C8.15515 30.3648 7.63717 29.9589 7.16992 29.4995C6.71111 29.0377 6.30543 28.5249 5.9577 27.9731C5.83696 27.7811 5.61474 27.6777 5.39139 27.7106ZM11.3534 31.857C11.1566 31.8692 10.9792 31.9822 10.885 32.156C10.7896 32.3298 10.7908 32.54 10.8874 32.7138L12.9581 36.4279L12.9569 36.4266C13.0583 36.6089 13.249 36.7207 13.4567 36.7207C13.6632 36.7207 13.854 36.6089 13.9554 36.4266L16.0127 32.7394C16.1238 32.5413 16.1081 32.2958 15.9729 32.1123C15.8377 31.93 15.6083 31.8437 15.3873 31.8948C14.7546 32.0382 14.1075 32.1111 13.4591 32.1123C12.8047 32.105 12.1539 32.0248 11.5177 31.8729V31.8717C11.4633 31.8595 11.4078 31.8546 11.3535 31.8583L11.3534 31.857Z" fill="#FBE11E"/>
<path d="M13.4556 9.64441C13.2491 9.64441 13.0583 9.75743 12.9569 9.93851L10.8863 13.6526H10.8875C10.7764 13.8519 10.7933 14.0973 10.9297 14.2796C11.0662 14.4619 11.2968 14.5458 11.5177 14.4935C12.154 14.3416 12.806 14.2614 13.4592 14.2541C14.1075 14.2541 14.7547 14.3282 15.3874 14.4716C15.6083 14.5215 15.8377 14.4364 15.9729 14.2541C16.107 14.0706 16.1239 13.8263 16.0128 13.627L13.9554 9.93881C13.854 9.75651 13.6632 9.64319 13.4556 9.64441ZM4.32162 13.4471C4.14535 13.452 3.98113 13.5395 3.87731 13.6817C3.77347 13.8239 3.73966 14.0074 3.78675 14.1775L4.92411 18.25C4.98448 18.4687 5.168 18.6304 5.39137 18.6644C5.61473 18.6972 5.83689 18.5951 5.95762 18.4031C6.30414 17.8514 6.71103 17.3397 7.16864 16.8767C7.63589 16.4161 8.15507 16.0102 8.71168 15.6651C8.90486 15.5448 9.00991 15.3212 8.97731 15.0939C8.94592 14.8679 8.78413 14.6819 8.56439 14.62L4.49181 13.4679C4.43627 13.4521 4.37837 13.4459 4.32162 13.4471ZM22.5821 13.4471C22.5193 13.4435 22.4577 13.4508 22.3974 13.4678L18.3514 14.6126V14.6114C18.134 14.6733 17.9734 14.8581 17.9397 15.0829C17.9071 15.3077 18.0085 15.5313 18.1992 15.6528C18.7474 16.0016 19.2557 16.4112 19.7157 16.8718C20.1733 17.3421 20.5766 17.8646 20.9195 18.4249V18.4237C21.039 18.6193 21.2612 18.7239 21.4869 18.6923C21.7115 18.6607 21.8962 18.4978 21.9578 18.2766L23.1012 14.1774C23.1483 14.0097 23.1169 13.8287 23.0155 13.6865C22.914 13.5455 22.7547 13.4568 22.5821 13.4471ZM13.4494 15.1181C9.03031 15.1181 5.4359 18.736 5.4359 23.184C5.4359 27.632 9.03031 31.2499 13.4494 31.2499C17.8685 31.2499 21.4629 27.632 21.4629 23.184C21.4629 18.736 17.8685 15.1181 13.4494 15.1181ZM4.2731 20.5308C4.17047 20.5284 4.06905 20.5539 3.9797 20.605L0.289774 22.6892H0.290981C0.111081 22.7913 0 22.9833 0 23.1911C0 23.3989 0.111081 23.5909 0.290981 23.693L3.95525 25.7638V25.7626C4.15206 25.8744 4.39596 25.8586 4.57705 25.7225C4.75816 25.5876 4.84268 25.3567 4.79317 25.1355C4.6507 24.4987 4.57826 23.8473 4.57705 23.1947C4.5843 22.536 4.66519 21.881 4.81611 21.2406L4.81732 21.2394C4.85717 21.0704 4.81853 20.8918 4.71349 20.7545C4.60724 20.6171 4.44545 20.5345 4.27278 20.5308L4.2731 20.5308ZM22.6013 20.5308C22.4335 20.5418 22.2789 20.6268 22.1799 20.763C22.0797 20.9003 22.0447 21.0741 22.0833 21.2381C22.2342 21.8786 22.3139 22.5348 22.3212 23.1923C22.3212 23.8449 22.2475 24.4963 22.105 25.1331V25.1343C22.0555 25.3567 22.1413 25.5864 22.3224 25.7225C22.5035 25.8586 22.7474 25.8732 22.9454 25.7626L26.6097 23.6918C26.7896 23.5897 26.9006 23.3977 26.9006 23.1898C26.9006 22.982 26.7896 22.79 26.6097 22.6879L22.9197 20.6037C22.8231 20.5491 22.7124 20.5236 22.6013 20.5308ZM8.2987 22.609C8.61502 22.609 8.87101 22.8666 8.87101 23.185C8.87101 25.7371 10.9139 27.7944 13.4505 27.7944C13.7668 27.7944 14.0228 28.0521 14.0228 28.3705C14.0228 28.6889 13.7668 28.9466 13.4505 28.9466C10.2956 28.9466 7.72614 26.3604 7.72614 23.1848C7.72614 22.8664 7.9821 22.6087 8.29845 22.6087L8.2987 22.609ZM21.4858 27.6838C21.2612 27.6522 21.0403 27.7579 20.9207 27.9512C20.5778 28.5114 20.1721 29.0316 19.7158 29.5031C19.257 29.9649 18.7475 30.372 18.1993 30.722C18.0085 30.8436 17.9059 31.0672 17.9385 31.2932C17.9723 31.518 18.1341 31.7027 18.3514 31.7635L22.3974 32.9083C22.5966 32.9642 22.8103 32.9083 22.9564 32.7612C23.1025 32.6142 23.1581 32.3991 23.1025 32.1986L21.958 28.0994C21.8964 27.8782 21.7115 27.7154 21.4858 27.6838ZM5.39139 27.7106C5.16802 27.7446 4.9845 27.9074 4.92413 28.1262L3.78677 32.1986C3.73123 32.3991 3.78677 32.6142 3.93287 32.7613C4.07896 32.9083 4.29268 32.9642 4.49189 32.9083L8.56447 31.7563C8.78422 31.6943 8.94601 31.5083 8.97739 31.2823C9.00999 31.0551 8.90494 30.8314 8.71176 30.7111C8.15515 30.3648 7.63717 29.9589 7.16992 29.4995C6.71111 29.0377 6.30543 28.5249 5.9577 27.9731C5.83696 27.7811 5.61474 27.6777 5.39139 27.7106ZM11.3534 31.857C11.1566 31.8692 10.9792 31.9822 10.885 32.156C10.7896 32.3298 10.7908 32.54 10.8874 32.7138L12.9581 36.4279L12.9569 36.4266C13.0583 36.6089 13.249 36.7207 13.4567 36.7207C13.6632 36.7207 13.854 36.6089 13.9554 36.4266L16.0127 32.7394C16.1238 32.5413 16.1081 32.2958 15.9729 32.1123C15.8377 31.93 15.6083 31.8437 15.3873 31.8948C14.7546 32.0382 14.1075 32.1111 13.4591 32.1123C12.8047 32.105 12.1539 32.0248 11.5177 31.8729V31.8717C11.4633 31.8595 11.4078 31.8546 11.3535 31.8583L11.3534 31.857Z" fill="#FBE11E"/>
</svg>
