<svg width="44" height="44" viewBox="0 0 44 44" fill="none" xmlns="http://www.w3.org/2000/svg">
<rect width="44" height="44" rx="22" fill="#E2E6D7"/>
<path fill-rule="evenodd" clip-rule="evenodd" d="M30.8062 25.2843C30.5752 23.9297 30.0842 22.6313 29.3599 21.4593L21.4491 8.2583L13.517 21.4969C12.8979 22.5044 12.4496 23.6053 12.19 24.7561C12.0705 25.2935 12.0068 25.8417 12 26.392C12 28.8718 12.9956 31.25 14.7677 33.0035C16.5398 34.7569 18.9433 35.742 21.4495 35.742C23.9556 35.742 26.3591 34.7569 28.1312 33.0035C29.9034 31.25 30.8989 28.8718 30.8989 26.392C30.8965 26.021 30.8655 25.6507 30.8062 25.2843ZM27.9535 28.539C27.6017 29.4114 27.0751 30.2043 26.4053 30.8698C25.7355 31.5354 24.9364 32.0599 24.0563 32.4118C23.97 32.4466 23.8777 32.4644 23.7846 32.4641C23.6161 32.4642 23.4528 32.4062 23.3227 32.3002C23.1927 32.1942 23.104 32.0467 23.0719 31.883C23.0398 31.7193 23.0663 31.5497 23.1468 31.4032C23.2274 31.2568 23.3569 31.1426 23.5132 31.0804C24.2108 30.801 24.8442 30.3851 25.3752 29.8575C25.9063 29.33 26.3242 28.7017 26.6038 28.0103C26.6389 27.9226 26.6912 27.8427 26.7575 27.7749C26.8239 27.7072 26.9031 27.6531 26.9906 27.6157C27.0781 27.5782 27.1722 27.5582 27.2676 27.5568C27.3629 27.5554 27.4576 27.5725 27.5462 27.6073C27.6348 27.642 27.7156 27.6937 27.7841 27.7594C27.8525 27.8251 27.9072 27.9034 27.945 27.99C27.9829 28.0766 28.0031 28.1697 28.0045 28.264C28.006 28.3584 27.9887 28.452 27.9535 28.5397V28.539Z" fill="#2DDDE4"/>
</svg>
